<svg id="Layer_1" enable-background="new 0 0 50 50" height="512" viewBox="0 0 50 50" width="512" xmlns="http://www.w3.org/2000/svg"><g id="XMLID_141_"><g id="XMLID_980_"><path id="XMLID_997_" d="m1 3.951v15.94c0 1.63 1.321 2.951 2.951 2.951h42.098c1.63 0 2.951-1.321 2.951-2.951v-15.94c0-1.63-1.321-2.951-2.951-2.951l-42.098 0c-1.63 0-2.951 1.321-2.951 2.951z" fill="#e6e6e6"/><path d="m23.467 3.951h9.783v15.94h-9.783z" fill="#88c057"/><path d="m36.266 3.951h9.783v15.94h-9.783z" fill="#638b3f"/></g><g id="XMLID_156_"><path id="XMLID_979_" d="m13.135 1.864-11.271 11.272c-1.152 1.152-1.152 3.021 0 4.173l29.768 29.768c1.152 1.152 3.021 1.152 4.173 0l11.271-11.271c1.152-1.152 1.152-3.021 0-4.173l-29.767-29.769c-1.153-1.152-3.021-1.152-4.174 0z" fill="#ccc"/><path d="m9.825 12.904h15.941v9.783h-15.941z" fill="#ed7b72" transform="matrix(.707 -.707 .707 .707 -7.371 17.796)"/><path d="m18.875 21.954h15.941v9.783h-15.941z" fill="#ed7161" transform="matrix(.707 -.707 .707 .707 -11.12 26.845)"/><path d="m27.925 31.004h15.941v9.783h-15.941z" fill="#d56455" transform="matrix(.707 -.707 .707 .707 -14.869 35.896)"/></g><g id="XMLID_143_"><path id="XMLID_155_" d="m19.891 1h-15.94c-1.63 0-2.951 1.321-2.951 2.951v42.098c0 1.63 1.321 2.951 2.951 2.951h15.94c1.63 0 2.951-1.321 2.951-2.951v-42.098c0-1.63-1.322-2.951-2.951-2.951z" fill="#e6e6e6"/><path d="m3.95 10.669h15.941v9.783h-15.941z" fill="#92d3ff"/><path d="m3.95 23.468h15.941v9.783h-15.941z" fill="#3ab7fc"/><path d="m3.95 36.266h15.941v9.783h-15.941z" fill="#48a0dc"/><circle cx="11.921" cy="5.519" fill="#ccc" r="2.274"/><circle cx="11.921" cy="5.519" fill="#fff" r="1.159"/></g></g></svg>